<svg width="320" height="80" viewBox="0 0 320 80" fill="none" xmlns="http://www.w3.org/2000/svg" role="img" aria-label="Kenect AI — Generative Video">
  <defs>
    <linearGradient id="kn-bar-l" x1="0" y1="0" x2="0" y2="1">
      <stop offset="0" stop-color="#FFFFFF"/><stop offset=".45" stop-color="#C7D2FE"/><stop offset="1" stop-color="#7C86B8"/>
    </linearGradient>
    <linearGradient id="kn-diamond-l" x1="0" y1="0" x2="1" y2="1">
      <stop offset="0" stop-color="#6366F1"/><stop offset=".55" stop-color="#D946EF"/><stop offset="1" stop-color="#EC4899"/>
    </linearGradient>
    <linearGradient id="kn-spark-l" x1="0" y1="0" x2="1" y2="1">
      <stop offset="0" stop-color="#5EEAD4"/><stop offset=".5" stop-color="#2DD4BF"/><stop offset="1" stop-color="#0EA5E9"/>
    </linearGradient>
    <linearGradient id="kn-ai-l" x1="0" y1="0" x2="1" y2="0">
      <stop offset="0" stop-color="#D946EF"/><stop offset=".4" stop-color="#EC4899"/><stop offset=".75" stop-color="#2DD4BF"/><stop offset="1" stop-color="#0EA5E9"/>
    </linearGradient>
  </defs>
  <rect x="8" y="16" width="14" height="48" rx="8" fill="url(#kn-bar-l)"/>
  <rect x="22" y="22" width="36" height="36" rx="9" transform="rotate(45 40 40)" fill="url(#kn-diamond-l)" stroke="#FFFFFF" stroke-width="4"/>
  <path d="M35 33l13 7-13 7z" fill="#FFFFFF"/>
  <path d="M58.5 8l1.4 7.1L67 16.5l-7.1 1.4L58.5 25l-1.4-7.1L50 16.5l7.1-1.4z" fill="url(#kn-spark-l)"/>
  <path d="M67 26l.8 3.7 3.7.8-3.7.8-.8 3.7-.8-3.7-3.7-.8 3.7-.8z" fill="url(#kn-spark-l)" opacity=".9"/>
  <text x="78" y="52" font-family="Outfit, Inter, -apple-system, 'Segoe UI', Helvetica, Arial, sans-serif" font-size="40" font-weight="700" letter-spacing="-1" fill="#0A0A0F">Kenect</text>
  <text x="213" y="52" font-family="Outfit, Inter, -apple-system, 'Segoe UI', Helvetica, Arial, sans-serif" font-size="40" font-weight="300" fill="url(#kn-ai-l)">AI</text>
  <text x="80" y="71" font-family="Outfit, Inter, -apple-system, 'Segoe UI', Helvetica, Arial, sans-serif" font-size="10" font-weight="500" letter-spacing="4" fill="#334155" opacity=".5">GENERATIVE VIDEO</text>
</svg>
